<svg xmlns="http://www.w3.org/2000/svg" width="80" height="80" viewBox="0 0 80 80" fill="none"><circle cx="40" cy="40" r="40" fill="#E7F6F6"></circle><g clip-path="url(#clip0_32_43)"><path d="M60.5103 35.4325C60.8425 36.9197 61 38.4603 61 40C61 51.5853 51.5853 61 40 61C28.4147 61 19 51.5853 19 40C19 28.4147 28.4147 19 40 19C41.5397 19 43.0803 19.1747 44.5675 19.4897C45.04 19.5947 45.3378 20.0672 45.2328 20.5397C45.1278 21.0122 44.6553 21.31 44.1828 21.205C42.8178 20.9072 41.4003 20.7497 40 20.7497C29.3778 20.7497 20.7497 29.3778 20.7497 40C20.7497 50.6222 29.377 59.2503 40 59.2503C50.623 59.2503 59.2503 50.623 59.2503 40C59.2503 38.5825 59.0928 37.1822 58.795 35.8172C58.69 35.3447 58.9878 34.8722 59.4603 34.7672C59.9328 34.6622 60.4053 34.96 60.5103 35.4325Z" fill="#1DBFCC"></path><path d="M42.4502 27.995C42.9227 28.0828 43.378 27.785 43.483 27.3125C43.5708 26.84 43.273 26.3847 42.8005 26.2797C41.8908 26.087 40.9458 26 40.0008 26C32.2833 26 26.0005 32.2828 26.0005 40.0003C26.0005 47.7178 32.2833 54.0005 40.0008 54.0005C47.7183 54.0005 54.001 47.7178 54.001 40.0003C54.001 39.0553 53.9133 38.1103 53.7213 37.2005C53.6335 36.728 53.161 36.4303 52.6885 36.518C52.216 36.623 51.901 37.0783 52.006 37.5508C52.1635 38.3555 52.2513 39.1783 52.2513 40.0011C52.2513 46.7564 46.756 52.2508 40.0016 52.2508C33.2471 52.2508 27.7519 46.7555 27.7519 40.0011C27.7519 33.2466 33.2471 27.7514 40.0016 27.7514C40.8244 27.7514 41.6463 27.8391 42.4519 27.9966L42.4502 27.995Z" fill="#1DBFCC"></path><path d="M39.2476 34.8022C39.7201 34.7325 40.0524 34.2944 39.9826 33.8047C39.9129 33.315 39.4749 32.9819 38.9851 33.0697C35.5554 33.5594 32.9829 36.5347 32.9829 39.9997C32.9829 43.8675 36.1157 46.9994 39.9826 46.9994C43.4476 46.9994 46.4229 44.4269 46.9126 40.9972C46.9824 40.5247 46.6501 40.0694 46.1776 39.9997C45.7051 39.93 45.2499 40.2622 45.1801 40.7347C44.8126 43.3072 42.5724 45.2325 39.9826 45.2325C37.0951 45.2325 34.7326 42.87 34.7326 39.9825C34.7326 37.3928 36.6579 35.1525 39.2304 34.785L39.2476 34.8022Z" fill="#1DBFCC"></path><path d="M60.9303 26.5425C60.79 26.2095 60.475 25.9995 60.1247 25.9995H54.0003V19.875C54.0003 19.5248 53.7903 19.2098 53.4572 19.0695C53.1422 18.93 52.7575 19.017 52.5122 19.2623L48.2778 23.4795C47.455 24.3023 46.9997 25.4048 46.9997 26.577V31.7573L47.0178 31.74L39.4053 39.3525C39.055 39.702 39.055 40.245 39.4053 40.5945C39.5628 40.77 39.8072 40.857 40.0172 40.857C40.2272 40.857 40.4553 40.77 40.63 40.5945L48.2425 32.982H53.4228C54.595 32.982 55.6975 32.5275 56.5203 31.7048L60.7375 27.4875C60.9828 27.2423 61.0697 26.8748 60.9303 26.5425ZM55.2775 30.48C54.7878 30.9698 54.1225 31.2495 53.4228 31.2495H48.7503V26.577C48.7503 25.8773 49.03 25.212 49.5197 24.7223L52.2497 21.9923V26.8748C52.2497 27.3645 52.6353 27.75 53.125 27.75H58.0075L55.2775 30.48Z" fill="#002345"></path></g><defs><clipPath id="clip0_32_43"><rect width="42" height="42" fill="white" transform="translate(19 19)"></rect></clipPath></defs></svg>