<svg xmlns="http://www.w3.org/2000/svg" width="910" height="640" viewBox="0 0 910 640" fill="none"><g opacity="0.12"><path d="M812.901 441.474H753.193V381.574H684.159V441.474H624.35V510.731H684.159V570.632H753.193V510.731H812.901V441.474Z" fill="#1DBFCC"></path><path d="M1014.53 517.645L982.801 253.025L455.262 318.112C455.262 318.112 619.586 501.272 550.551 934C550.551 934 546.395 512.052 375.178 280.687L1027 200.345L1014.53 517.543V517.645Z" fill="#002345"></path><path d="M684.16 161.599L633.372 50.7477L119.72 114.513C119.72 114.513 480.605 470.967 419.781 821.93C419.781 821.93 377.408 395.202 0 72.0028L660.945 0L684.058 161.599H684.16Z" fill="#002345"></path></g></svg>