<svg xmlns="http://www.w3.org/2000/svg" width="727" height="823" viewBox="0 0 727 823" fill="none"><path d="M27.4674 809.267C27.4674 809.267 384.114 895.234 575.649 552.513C575.649 552.513 467.357 871.705 100.044 878.75L27.4674 809.267Z" fill="#1DBFCC" fill-opacity="0.15"></path><path d="M556.947 186.161C576.927 206.823 590.019 241.323 600.744 267.243C628.337 333.697 641.152 406.211 636.097 478.026C626.528 612.094 556.716 737.71 451.293 819.345C414.296 848.025 373.524 871.687 330.494 890.195C291.892 906.839 251.636 918.574 211.144 929.424C209.38 929.896 207.768 929.922 207.768 929.922C207.087 929.901 206.801 929.842 206.818 929.905C206.668 930.352 245.74 941.156 245.74 941.156C288.533 952.996 309.852 959.005 310.2 959.047C314.143 960.158 318.149 961.253 322.091 962.365C325.668 963.371 335.318 958.075 338.588 956.928C353.724 951.45 368.48 945.057 382.941 938.066C431.514 914.549 476.685 883.882 516.342 847.24C631.998 740.573 701.386 579.366 672.706 421.198C657.455 337.074 616.968 248.194 556.913 186.034L556.947 186.161Z" fill="#1DBFCC" fill-opacity="0.15"></path><path d="M385.122 46.3449C385.524 43.0578 414.809 43.9369 425.15 44.2098C570.76 48.3494 690.719 155.684 753.241 281.114C826.731 428.565 815.535 602.09 727.152 740.425C668.478 832.311 578.909 915.295 476.85 955.696C458.958 962.79 440.567 968.53 421.804 972.881C438.066 968.524 462.28 949.725 475.75 939.487C490.861 928.064 505.618 915.317 520.691 903.499C554.508 876.919 587.334 848.913 616.569 817.337C659.045 771.391 761.87 615.861 729.255 419.51C700.899 249.143 587.648 144.407 544.693 115.197C507.856 90.1642 474.722 76.1794 474.722 76.1794C426.139 55.7146 384.611 50.7431 385.139 46.408L385.122 46.3449Z" fill="#1DBFCC" fill-opacity="0.15"></path></svg>