<svg xmlns="http://www.w3.org/2000/svg" width="56" height="56" viewBox="0 0 56 56" fill="none"><rect width="56" height="56" rx="10" fill="#002345"></rect><g clip-path="url(#clip0_835_166)"><path d="M39.0113 24.1988H32.9576V23.1574C32.9576 22.7259 32.6078 22.3761 32.1764 22.3761H29.5042V21.647C30.2383 21.0481 30.6793 20.139 30.6793 19.1795C30.6793 17.4263 29.253 16 27.4998 16C25.7466 16 24.3203 17.4263 24.3203 19.1795C24.3203 20.139 24.7614 21.0481 25.4954 21.647V22.3761H22.8232C22.3917 22.3761 22.0419 22.7259 22.0419 23.1574V24.1988H15.9883C15.5568 24.1988 15.207 24.5485 15.207 24.98V40.2188C15.207 40.6502 15.5568 41 15.9883 41H39.0114C39.4428 41 39.7926 40.6502 39.7926 40.2188V24.98C39.7926 24.5485 39.4428 24.1988 39.0113 24.1988ZM26.6757 20.571C26.1792 20.276 25.8828 19.7558 25.8828 19.1795C25.8828 18.2878 26.6082 17.5625 27.4998 17.5625C28.3914 17.5625 29.1168 18.2878 29.1168 19.1795C29.1168 19.7558 28.8204 20.276 28.3239 20.571C28.0869 20.7118 27.9417 20.967 27.9417 21.2426V22.3761H27.0579V21.2426C27.058 20.967 26.9127 20.7118 26.6757 20.571ZM23.6045 23.9386H31.3951V26.0214H23.6045V23.9386ZM38.2301 39.4375H16.7695V25.7613H22.042V26.8027C22.042 27.2342 22.3918 27.5839 22.8232 27.5839H32.1764C32.6078 27.5839 32.9576 27.2342 32.9576 26.8027V25.7613H38.2301V39.4375ZM25.4712 32.5115C25.8556 32.1179 26.0932 31.5803 26.0932 30.988C26.0932 29.7847 25.1142 28.8057 23.9109 28.8057C22.7076 28.8057 21.7286 29.7847 21.7286 30.988C21.7286 31.5803 21.9662 32.1179 22.3505 32.5115C20.9512 32.846 19.9073 34.1064 19.9073 35.6068V36.6876C19.9073 37.1191 20.2571 37.4688 20.6886 37.4688H27.1333C27.5647 37.4688 27.9145 37.1191 27.9145 36.6876V35.6068C27.9145 34.1064 26.8706 32.846 25.4712 32.5115ZM23.9109 30.3682C24.2526 30.3682 24.5307 30.6462 24.5307 30.988C24.5307 31.3297 24.2526 31.6078 23.9109 31.6078C23.5691 31.6078 23.2911 31.3297 23.2911 30.988C23.2911 30.6462 23.5691 30.3682 23.9109 30.3682ZM26.352 35.9063H21.4698V35.6068C21.4698 34.7133 22.1967 33.9863 23.0903 33.9863H24.7314C25.625 33.9863 26.3519 34.7133 26.3519 35.6068V35.9063H26.352ZM34.8605 30.7813C35.292 30.7813 35.6418 31.1311 35.6418 31.5626C35.6418 31.9941 35.292 32.3438 34.8605 32.3438H30.3562C29.9247 32.3438 29.5749 31.9941 29.5749 31.5626C29.5749 31.1311 29.9247 30.7813 30.3562 30.7813H34.8605ZM35.6418 34.712C35.6418 35.1435 35.292 35.4933 34.8605 35.4933H30.3562C29.9247 35.4933 29.5749 35.1435 29.5749 34.712C29.5749 34.2805 29.9247 33.9308 30.3562 33.9308H34.8605C35.292 33.9308 35.6418 34.2805 35.6418 34.712Z" fill="white"></path></g><defs><clipPath id="clip0_835_166"><rect width="25" height="25" fill="white" transform="translate(15 16)"></rect></clipPath></defs></svg>