<svg xmlns="http://www.w3.org/2000/svg" width="56" height="56" viewBox="0 0 56 56" fill="none"><rect width="56" height="56" rx="10" fill="#002345"></rect><path d="M40.5423 23.333C40.5423 21.5597 39.1073 20.1247 37.334 20.1247C35.5607 20.1247 34.1257 21.5597 34.1257 23.333C34.1257 24.7913 35.1173 26.0163 36.459 26.4013V32.6663C36.459 36.0497 33.7173 38.7913 30.334 38.7913C26.9507 38.7913 24.209 36.0497 24.209 32.6663V31.1613C28.1407 30.7297 31.209 27.3813 31.209 23.333V17.4997C31.209 16.3797 30.2873 15.458 29.1673 15.458H28.0007C27.5223 15.458 27.1257 15.8547 27.1257 16.333C27.1257 16.8113 27.5223 17.208 28.0007 17.208H29.1673C29.3307 17.208 29.459 17.3363 29.459 17.4997V23.333C29.459 26.7163 26.7173 29.458 23.334 29.458C19.9507 29.458 17.209 26.7163 17.209 23.333V17.4997C17.209 17.3363 17.3373 17.208 17.5007 17.208H18.6673C19.1457 17.208 19.5423 16.8113 19.5423 16.333C19.5423 15.8547 19.1457 15.458 18.6673 15.458H17.5007C16.3807 15.458 15.459 16.3797 15.459 17.4997V23.333C15.459 27.3813 18.5273 30.718 22.459 31.1613V32.6663C22.459 37.0063 25.994 40.5413 30.334 40.5413C34.674 40.5413 38.209 37.0063 38.209 32.6663V26.4013C39.5507 26.0163 40.5423 24.7913 40.5423 23.333ZM37.334 24.7913C36.529 24.7913 35.8757 24.138 35.8757 23.333C35.8757 22.528 36.529 21.8747 37.334 21.8747C38.139 21.8747 38.7923 22.528 38.7923 23.333C38.7923 24.138 38.139 24.7913 37.334 24.7913Z" fill="white"></path></svg>