<svg xmlns="http://www.w3.org/2000/svg" width="80" height="80" viewBox="0 0 80 80" fill="none"><circle cx="40" cy="40" r="40" fill="#E7F6F6"></circle><g clip-path="url(#clip0_32_45)"><path d="M53 33.9667C52.5167 32.0833 51.5333 30.35 50.1667 28.9833L44.35 23.1667C42.3 21.1333 39.5833 20 36.7 20H27.5C23.3667 20 20 23.3667 20 27.5V52.5C20 56.6333 23.3667 60 27.5 60H37.5C37.9667 60 38.3333 59.6333 38.3333 59.1667C38.3333 58.7 37.9667 58.3333 37.5 58.3333H27.5C24.2833 58.3333 21.6667 55.7167 21.6667 52.5V27.5C21.6667 24.2833 24.2833 21.6667 27.5 21.6667H36.6833C37.25 21.6667 37.8 21.7167 38.3333 21.8167V30.8333C38.3333 33.1333 40.2 35 42.5 35H52.1833C52.45 35 52.6833 34.8833 52.85 34.6833C53 34.4833 53.0667 34.2167 53 33.9667ZM42.5 33.3333C41.1167 33.3333 40 32.2167 40 30.8333V22.2833C41.1667 22.7333 42.25 23.4333 43.1667 24.35L48.9833 30.1667C49.8833 31.0667 50.5833 32.15 51.05 33.3333H42.5Z" fill="#1DBFCC"></path><path d="M53.9165 45.5837L50.3498 49.167L53.9165 52.7503C54.2498 53.067 54.2498 53.6003 53.9165 53.917C53.7665 54.0837 53.5498 54.167 53.3332 54.167C53.1165 54.167 52.8998 54.0837 52.7498 53.917L49.1665 50.3503L45.5832 53.917C45.4332 54.0837 45.2165 54.167 44.9998 54.167C44.7832 54.167 44.5665 54.0837 44.4165 53.917C44.0832 53.6003 44.0832 53.067 44.4165 52.7503L47.9832 49.167L44.4165 45.5837C44.0832 45.267 44.0832 44.7337 44.4165 44.417C44.7332 44.0837 45.2665 44.0837 45.5832 44.417L49.1665 47.9837L52.7498 44.417C53.0665 44.0837 53.5998 44.0837 53.9165 44.417C54.2498 44.7337 54.2498 45.267 53.9165 45.5837Z" fill="#002345"></path><path d="M49.1668 38.333C43.2002 38.333 38.3335 43.1997 38.3335 49.1663C38.3335 55.133 43.2002 59.9997 49.1668 59.9997C55.1335 59.9997 60.0002 55.133 60.0002 49.1663C60.0002 43.1997 55.1335 38.333 49.1668 38.333ZM49.1668 58.333C44.1168 58.333 40.0002 54.2163 40.0002 49.1663C40.0002 44.1163 44.1168 39.9997 49.1668 39.9997C54.2168 39.9997 58.3335 44.1163 58.3335 49.1663C58.3335 54.2163 54.2168 58.333 49.1668 58.333Z" fill="#002345"></path></g><defs><clipPath id="clip0_32_45"><rect width="40" height="40" fill="white" transform="translate(20 20)"></rect></clipPath></defs></svg>