<svg xmlns="http://www.w3.org/2000/svg" width="80" height="80" viewBox="0 0 80 80" fill="none"><circle cx="40" cy="40" r="40" fill="#E7F6F6"></circle><g clip-path="url(#clip0_32_23)"><path d="M53 33.9667C52.5167 32.0833 51.5333 30.35 50.15 28.9833L44.35 23.1833C42.3 21.1333 39.5833 20 36.6833 20H27.5C23.3667 20 20 23.3667 20 27.5V52.5C20 56.6333 23.3667 60 27.5 60H42.5C42.9667 60 43.3333 59.6333 43.3333 59.1667C43.3333 58.7 42.9667 58.3333 42.5 58.3333H27.5C24.2833 58.3333 21.6667 55.7167 21.6667 52.5V27.5C21.6667 24.2833 24.2833 21.6667 27.5 21.6667H36.6833C37.25 21.6667 37.8 21.7167 38.3333 21.8167V30.8333C38.3333 33.1333 40.2 35 42.5 35C42.5 35 52.2333 35.0167 52.4 34.9667C52.8333 34.8667 53.1167 34.4 53 33.9667ZM42.5 33.3333C41.1167 33.3333 40 32.2167 40 30.8333V22.2833C41.1833 22.7333 42.25 23.4333 43.1667 24.35L48.9833 30.1667C49.8833 31.0667 50.5833 32.15 51.05 33.3333H42.5Z" fill="#1DBFCC"></path><path d="M38.3332 44.1663C38.3332 44.633 37.9665 44.9997 37.4998 44.9997H27.4998C27.0332 44.9997 26.6665 44.633 26.6665 44.1663C26.6665 43.6997 27.0332 43.333 27.4998 43.333H37.4998C37.9665 43.333 38.3332 43.6997 38.3332 44.1663Z" fill="#1DBFCC"></path><path d="M38.3332 50.8333C38.3332 51.3 37.9665 51.6667 37.4998 51.6667H27.4998C27.0332 51.6667 26.6665 51.3 26.6665 50.8333C26.6665 50.3667 27.0332 50 27.4998 50H37.4998C37.9665 50 38.3332 50.3667 38.3332 50.8333Z" fill="#1DBFCC"></path><path d="M58.1665 39.8833L51.0998 37.55C50.9332 37.4833 50.7332 37.4833 50.5665 37.55L43.4998 39.8833C42.3998 40.25 41.6665 41.2667 41.6665 42.4333V48.95C41.6665 54.9833 48.1165 58.6667 50.0832 59.6667C50.0832 59.6667 50.4998 59.9333 50.8332 59.9333C51.1832 59.9333 51.5332 59.7167 51.5332 59.7167C53.5165 58.9167 59.9998 55.7833 59.9998 48.95V42.4333C59.9998 41.2667 59.2665 40.25 58.1665 39.8833ZM58.3332 48.95C58.3332 54.7333 52.6165 57.4833 50.8665 58.1833C49.1165 57.3167 43.3332 54.0167 43.3332 48.95V42.4333C43.3332 42 43.6165 41.6 44.0332 41.4667L50.8332 39.2167L57.6332 41.4667C58.0498 41.6 58.3332 42 58.3332 42.4333V48.95Z" fill="#002345"></path><path d="M38.3332 37.5003C38.3332 37.967 37.9665 38.3337 37.4998 38.3337H27.4998C27.0332 38.3337 26.6665 37.967 26.6665 37.5003C26.6665 37.0337 27.0332 36.667 27.4998 36.667H37.4998C37.9665 36.667 38.3332 37.0337 38.3332 37.5003Z" fill="#1DBFCC"></path></g><defs><clipPath id="clip0_32_23"><rect width="40" height="40" fill="white" transform="translate(20 20)"></rect></clipPath></defs></svg>