<svg xmlns="http://www.w3.org/2000/svg" width="56" height="56" viewBox="0 0 56 56" fill="none"><rect width="56" height="56" rx="10" fill="#002345"></rect><path d="M21.9023 28.6807C21.4364 28.6807 21.0586 29.0585 21.0586 29.5244C21.0586 29.9904 21.4364 30.3682 21.9023 30.3682H28.0467C28.5127 30.3682 28.8905 29.9904 28.8905 29.5244C28.8905 29.0585 28.5127 28.6807 28.0467 28.6807H21.9023Z" fill="white"></path><path d="M21.9023 20.8525H34.1011C34.567 20.8525 34.9448 20.4747 34.9448 20.0088C34.9448 19.5429 34.567 19.165 34.1011 19.165H21.9023C21.4364 19.165 21.0586 19.5429 21.0586 20.0088C21.0586 20.4747 21.4364 20.8525 21.9023 20.8525Z" fill="white"></path><path d="M34.9439 24.7666C34.9439 24.3007 34.5661 23.9229 34.1002 23.9229H21.9023C21.4364 23.9229 21.0586 24.3007 21.0586 24.7666C21.0586 25.2325 21.4364 25.6104 21.9023 25.6104H34.1011C34.5661 25.6104 34.9439 25.2325 34.9439 24.7666Z" fill="white"></path><path d="M37.132 14.0312H18.8695C17.2205 14.0312 15.8789 15.3728 15.8789 17.0219V38.9781C15.8789 40.6272 17.2205 41.9688 18.8686 41.9688H28.5811C29.047 41.9688 29.4248 41.5909 29.4248 41.125C29.4248 40.6591 29.047 40.2812 28.5811 40.2812H18.8695C18.1514 40.2812 17.5664 39.6962 17.5664 38.9781V17.0219C17.5664 16.3028 18.1514 15.7188 18.8695 15.7188H37.132C37.8511 15.7188 38.4352 16.3038 38.4352 17.0219V29.875C38.4352 30.3409 38.813 30.7188 39.2789 30.7188C39.7448 30.7188 40.1227 30.3409 40.1227 29.875V17.0219C40.1227 15.3728 38.7811 14.0312 37.132 14.0312Z" fill="white"></path><path d="M37.7549 38.4073C38.3812 37.5879 38.7684 36.5773 38.7684 35.4692C38.7684 32.787 36.5859 30.6045 33.9027 30.6045C31.2196 30.6045 29.0371 32.787 29.0371 35.4692C29.0371 38.1523 31.2196 40.3348 33.9027 40.3348C34.8674 40.3348 35.7627 40.0442 36.5193 39.5576L38.6821 41.7214C38.8462 41.8864 39.0627 41.9689 39.2784 41.9689C39.494 41.9689 39.7096 41.8864 39.8746 41.7214C40.2046 41.3923 40.2046 40.8579 39.8746 40.5289L37.7549 38.4073ZM30.7246 35.4692C30.7246 33.717 32.1505 32.2911 33.9027 32.2911C35.6549 32.2911 37.0809 33.717 37.0809 35.4692C37.0809 37.2214 35.6549 38.6473 33.9027 38.6473C32.1505 38.6473 30.7246 37.2214 30.7246 35.4692Z" fill="white"></path></svg>