<svg xmlns="http://www.w3.org/2000/svg" width="56" height="56" viewBox="0 0 56 56" fill="none"><rect width="56" height="56" rx="10" fill="#002345"></rect><g clip-path="url(#clip0_835_125)"><path d="M21.1612 34.7838C21.0837 34.7838 21.005 34.7688 20.9288 34.7388C16.8725 33.1163 14.25 29.2438 14.25 24.875C14.25 19.0163 19.0163 14.25 24.875 14.25C30.7337 14.25 35.5 19.0163 35.5 24.875C35.5 28.3863 33.7625 31.675 30.8538 33.675C30.5675 33.8725 30.18 33.7988 29.985 33.5138C29.79 33.2288 29.8612 32.84 30.1462 32.645C32.715 30.88 34.25 27.9738 34.25 24.875C34.25 19.705 30.045 15.5 24.875 15.5C19.705 15.5 15.5 19.705 15.5 24.875C15.5 28.73 17.8138 32.145 21.3938 33.5788C21.715 33.7075 21.87 34.0713 21.7413 34.39C21.6438 34.635 21.41 34.7838 21.1612 34.7838Z" fill="white"></path><path d="M25.5 29.25H22.375C22.03 29.25 21.75 28.97 21.75 28.625C21.75 28.28 22.03 28 22.375 28H25.5C26.19 28 26.75 27.4387 26.75 26.75C26.75 26.0613 26.19 25.5 25.5 25.5H24.25C22.8712 25.5 21.75 24.3788 21.75 23C21.75 21.6212 22.8712 20.5 24.25 20.5H27.375C27.72 20.5 28 20.78 28 21.125C28 21.47 27.72 21.75 27.375 21.75H24.25C23.56 21.75 23 22.3112 23 23C23 23.6888 23.56 24.25 24.25 24.25H25.5C26.8787 24.25 28 25.3713 28 26.75C28 28.1287 26.8787 29.25 25.5 29.25Z" fill="white"></path><path d="M24.875 21.75C24.53 21.75 24.25 21.47 24.25 21.125V18.625C24.25 18.28 24.53 18 24.875 18C25.22 18 25.5 18.28 25.5 18.625V21.125C25.5 21.47 25.22 21.75 24.875 21.75Z" fill="white"></path><path d="M24.875 31.75C24.53 31.75 24.25 31.47 24.25 31.125V28.625C24.25 28.28 24.53 28 24.875 28C25.22 28 25.5 28.28 25.5 28.625V31.125C25.5 31.47 25.22 31.75 24.875 31.75Z" fill="white"></path><path d="M13.625 43C13.4187 43 13.2175 42.8975 13.0975 42.7113C12.9125 42.42 12.9987 42.0338 13.2887 41.8488L27.0387 33.0988C27.2862 32.9413 27.6087 32.9763 27.8162 33.1838L32.3737 37.7413L41.9312 28.1838C42.175 27.94 42.5712 27.94 42.815 28.1838C43.0587 28.4275 43.0587 28.8238 42.815 29.0675L32.815 39.0675C32.5712 39.3113 32.175 39.3113 31.9312 39.0675L27.285 34.4213L13.9612 42.9025C13.8575 42.9688 13.7412 43 13.625 43Z" fill="white"></path><path d="M42.375 34.25C42.03 34.25 41.75 33.97 41.75 33.625V29.25H37.375C37.03 29.25 36.75 28.97 36.75 28.625C36.75 28.28 37.03 28 37.375 28H42.375C42.72 28 43 28.28 43 28.625V33.625C43 33.97 42.72 34.25 42.375 34.25Z" fill="white"></path></g><defs><clipPath id="clip0_835_125"><rect width="30" height="30" fill="white" transform="translate(13 13)"></rect></clipPath></defs></svg>