<svg xmlns="http://www.w3.org/2000/svg" width="56" height="57" viewBox="0 0 56 57" fill="none"><rect y="0.427734" width="56" height="56" rx="10" fill="#002345"></rect><path d="M43.5469 21.3886C43.4708 21.3124 43.3804 21.2519 43.2809 21.2107C43.1814 21.1695 43.0747 21.1483 42.967 21.1483C42.8593 21.1483 42.7526 21.1695 42.6531 21.2107C42.5536 21.2519 42.4632 21.3124 42.387 21.3886C41.6678 22.1104 40.8933 22.775 40.0707 23.3763L32.6233 15.9289C33.2247 15.1064 33.8892 14.3319 34.611 13.6127C34.6892 13.5369 34.7515 13.4464 34.7943 13.3464C34.8372 13.2464 34.8597 13.1388 34.8606 13.03C34.8614 12.9211 34.8406 12.8132 34.7994 12.7125C34.7581 12.6118 34.6973 12.5203 34.6203 12.4434C34.5434 12.3664 34.4519 12.3056 34.3511 12.2643C34.2504 12.2231 34.1425 12.2023 34.0337 12.2032C33.9249 12.204 33.8173 12.2265 33.7173 12.2694C33.6172 12.3122 33.5267 12.3746 33.451 12.4527C28.4942 17.4096 27.992 22.1417 27.7226 26.7226C23.1417 26.992 18.4093 27.4942 13.4527 32.451C13.3746 32.5267 13.3122 32.6173 13.2694 32.7173C13.2265 32.8173 13.204 32.9249 13.2032 33.0337C13.2023 33.1425 13.2231 33.2504 13.2643 33.3511C13.3056 33.4519 13.3664 33.5434 13.4434 33.6203C13.5203 33.6973 13.6118 33.7581 13.7125 33.7994C13.8132 33.8406 13.9211 33.8614 14.03 33.8606C14.1388 33.8597 14.2464 33.8372 14.3464 33.7943C14.4464 33.7515 14.5369 33.6892 14.6127 33.611C15.232 32.9903 15.8915 32.411 16.5869 31.8768L24.1228 39.4124C23.5885 40.1078 23.0091 40.7674 22.3883 41.3869C22.3102 41.4626 22.2479 41.5531 22.205 41.6532C22.1622 41.7532 22.1397 41.8608 22.1388 41.9696C22.1379 42.0784 22.1587 42.1863 22.2 42.287C22.2412 42.3877 22.3021 42.4792 22.379 42.5562C22.456 42.6331 22.5475 42.694 22.6482 42.7353C22.7489 42.7765 22.8568 42.7973 22.9656 42.7964C23.0745 42.7955 23.182 42.773 23.2821 42.7302C23.3821 42.6873 23.4726 42.625 23.5483 42.5468C28.5051 37.59 29.0073 32.8578 29.2767 28.2769C33.8576 28.0076 38.59 27.5054 43.5466 22.5485C43.6228 22.4724 43.6833 22.382 43.7246 22.2825C43.7658 22.183 43.7871 22.0763 43.7871 21.9686C43.7872 21.8609 43.766 21.7542 43.7248 21.6547C43.6835 21.5552 43.6231 21.4647 43.5469 21.3886ZM38.6718 24.2971C37.5215 24.9681 36.288 25.4848 35.0029 25.8338L30.1658 20.9974C30.5148 19.7122 31.0315 18.4785 31.7026 17.3282L38.6718 24.2971ZM29.7509 22.9023L33.0978 26.2487C31.8633 26.4393 30.6198 26.5658 29.3723 26.6275C29.434 25.3801 29.5603 24.1366 29.7509 22.9023ZM27.1705 32.5519L23.4478 28.8291C24.8301 28.5891 26.2261 28.4365 27.6276 28.372C27.5632 29.7735 27.4106 31.1696 27.1705 32.5519ZM17.9567 30.9264C19.0867 30.221 20.3049 29.6678 21.5797 29.281L26.7187 34.42C26.332 35.6947 25.7788 36.9127 25.0734 38.0427L17.9567 30.9264Z" fill="white" stroke="#002345" stroke-width="0.4"></path></svg>