<svg xmlns="http://www.w3.org/2000/svg" width="56" height="57" viewBox="0 0 56 57" fill="none"><rect y="0.427734" width="56" height="56" rx="10" fill="#002345"></rect><g clip-path="url(#clip0_835_184)"><path d="M34.8464 39.5762C35.0524 39.5762 35.2501 39.4943 35.3958 39.3486C35.5415 39.2029 35.6234 39.0053 35.6234 38.7992V38.7852C35.6149 38.5838 35.5285 38.3935 35.3825 38.2545C35.2364 38.1155 35.0422 38.0386 34.8406 38.0401C34.639 38.0415 34.4458 38.1211 34.3017 38.2622C34.1577 38.4032 34.074 38.5947 34.0684 38.7962C34.068 38.8986 34.0878 39 34.1267 39.0947C34.1657 39.1894 34.2229 39.2754 34.2952 39.3479C34.3675 39.4204 34.4534 39.4779 34.548 39.5171C34.6426 39.5562 34.744 39.5763 34.8464 39.5762Z" fill="white"></path><path d="M34.8379 37.3229C35.0368 37.3229 35.2276 37.2438 35.3682 37.1032C35.5089 36.9625 35.5879 36.7718 35.5879 36.5729V34.1729C35.5879 33.9739 35.5089 33.7832 35.3682 33.6425C35.2276 33.5019 35.0368 33.4229 34.8379 33.4229C34.639 33.4229 34.4482 33.5019 34.3076 33.6425C34.1669 33.7832 34.0879 33.9739 34.0879 34.1729V36.5729C34.0879 36.7718 34.1669 36.9625 34.3076 37.1032C34.4482 37.2438 34.639 37.3229 34.8379 37.3229Z" fill="white"></path><path d="M29.2054 42.7502H40.5054C40.8153 42.7355 41.1192 42.6597 41.3997 42.5272C41.6802 42.3948 41.9318 42.2082 42.14 41.9782C42.3482 41.7483 42.509 41.4794 42.613 41.1872C42.7171 40.895 42.7624 40.585 42.7464 40.2752C42.7261 39.9803 42.6529 39.6913 42.5304 39.4222L36.9084 29.5852C36.6923 29.1923 36.3691 28.8687 35.9764 28.6522C35.6309 28.4648 35.2435 28.3678 34.8504 28.3702H34.8304C34.4112 28.3661 33.9987 28.4755 33.6365 28.6867C33.2744 28.898 32.9762 29.2033 32.7734 29.5702L30.6994 33.2002L27.1474 39.4162C27.1296 39.4458 27.1146 39.4769 27.1024 39.5092C27.0035 39.7547 26.9461 40.0149 26.9324 40.2792C26.9174 40.5912 26.9646 40.903 27.0713 41.1966C27.178 41.4901 27.342 41.7595 27.5539 41.989C27.7657 42.2185 28.0211 42.4036 28.3051 42.5334C28.5892 42.6632 28.8962 42.7352 29.2084 42.7452L29.2054 42.7502ZM28.4764 40.1132L34.0834 30.3052C34.1561 30.1698 34.265 30.0573 34.398 29.9803C34.531 29.9033 34.6828 29.8649 34.8364 29.8692H34.8444C34.987 29.8671 35.1278 29.9015 35.2534 29.9692C35.4 30.0498 35.5201 30.171 35.5994 30.3182L41.1854 40.0772C41.2207 40.1664 41.2419 40.2605 41.2484 40.3562C41.2541 40.4688 41.2374 40.5814 41.1993 40.6875C41.1612 40.7936 41.1025 40.891 41.0264 40.9742C40.8836 41.1348 40.6846 41.2344 40.4704 41.2522H29.2404C29.1071 41.2465 28.9771 41.2094 28.8608 41.1441C28.7444 41.0788 28.6451 40.9871 28.5707 40.8764C28.4964 40.7656 28.4491 40.6389 28.4327 40.5065C28.4163 40.3742 28.4313 40.2388 28.4764 40.1132Z" fill="white"></path><path d="M35 13.25H21C18.9453 13.2524 16.9754 14.0697 15.5226 15.5226C14.0697 16.9754 13.2524 18.9453 13.25 21V34.891C13.2524 36.9457 14.0697 38.9156 15.5226 40.3684C16.9754 41.8213 18.9453 42.6386 21 42.641H23.106C23.3049 42.641 23.4957 42.562 23.6363 42.4213C23.777 42.2807 23.856 42.0899 23.856 41.891C23.856 41.6921 23.777 41.5013 23.6363 41.3607C23.4957 41.22 23.3049 41.141 23.106 41.141H21C19.343 41.1391 17.7543 40.4801 16.5826 39.3084C15.4109 38.1367 14.7519 36.548 14.75 34.891V22.653H29.25C29.7125 22.6543 30.1679 22.5383 30.5734 22.3158C30.979 22.0934 31.3215 21.7718 31.569 21.381L32.215 20.368C32.3274 20.1903 32.4831 20.0441 32.6674 19.943C32.8518 19.8419 33.0588 19.7893 33.269 19.79H41.13C41.2091 20.1885 41.2493 20.5937 41.25 21V28.866C41.25 29.0649 41.329 29.2557 41.4697 29.3963C41.6103 29.537 41.8011 29.616 42 29.616C42.1989 29.616 42.3897 29.537 42.5303 29.3963C42.671 29.2557 42.75 29.0649 42.75 28.866V21C42.7476 18.9453 41.9303 16.9754 40.4774 15.5226C39.0246 14.0697 37.0547 13.2524 35 13.25ZM33.268 18.29C32.8054 18.2889 32.35 18.405 31.9443 18.6274C31.5386 18.8498 31.1959 19.1714 30.948 19.562L30.3 20.574C30.1876 20.7518 30.032 20.8982 29.8477 20.9994C29.6633 21.1007 29.4563 21.1535 29.246 21.153H14.75V21C14.7519 19.343 15.4109 17.7543 16.5826 16.5826C17.7543 15.4109 19.343 14.7519 21 14.75H35C36.1752 14.7519 37.3261 15.085 38.3207 15.7112C39.3153 16.3373 40.1132 17.2311 40.623 18.29H33.268Z" fill="white"></path><path d="M19.0353 16.8633C18.8198 16.8631 18.6092 16.9268 18.4299 17.0464C18.2507 17.166 18.1109 17.336 18.0284 17.5351C17.9459 17.7341 17.9242 17.9532 17.9662 18.1645C18.0082 18.3758 18.1119 18.57 18.2643 18.7223C18.4166 18.8747 18.6108 18.9784 18.8221 19.0204C19.0334 19.0624 19.2525 19.0407 19.4515 18.9582C19.6505 18.8756 19.8206 18.7359 19.9402 18.5567C20.0598 18.3774 20.1235 18.1668 20.1233 17.9513C20.1233 17.6627 20.0087 17.386 19.8046 17.1819C19.6006 16.9779 19.3239 16.8633 19.0353 16.8633Z" fill="white"></path><path d="M22.633 16.8633C22.4175 16.8631 22.2068 16.9268 22.0276 17.0464C21.8483 17.166 21.7086 17.336 21.6261 17.5351C21.5435 17.7341 21.5219 17.9532 21.5638 18.1645C21.6058 18.3758 21.7096 18.57 21.8619 18.7223C22.0143 18.8747 22.2084 18.9784 22.4198 19.0204C22.6311 19.0624 22.8501 19.0407 23.0492 18.9582C23.2482 18.8756 23.4183 18.7359 23.5379 18.5567C23.6574 18.3774 23.7212 18.1668 23.721 17.9513C23.721 17.6627 23.6063 17.386 23.4023 17.1819C23.1983 16.9779 22.9215 16.8633 22.633 16.8633Z" fill="white"></path><path d="M26.2287 16.8633C26.0132 16.8631 25.8025 16.9268 25.6233 17.0464C25.444 17.166 25.3043 17.336 25.2218 17.5351C25.1392 17.7341 25.1176 17.9532 25.1595 18.1645C25.2015 18.3758 25.3053 18.57 25.4576 18.7223C25.61 18.8747 25.8041 18.9784 26.0155 19.0204C26.2268 19.0624 26.4458 19.0407 26.6449 18.9582C26.8439 18.8756 27.014 18.7359 27.1336 18.5567C27.2531 18.3774 27.3169 18.1668 27.3167 17.9513C27.3167 17.6627 27.202 17.386 26.998 17.1819C26.794 16.9779 26.5172 16.8633 26.2287 16.8633Z" fill="white"></path></g><defs><clipPath id="clip0_835_184"><rect width="30" height="30" fill="white" transform="translate(13 13)"></rect></clipPath></defs></svg>