<svg xmlns="http://www.w3.org/2000/svg" width="80" height="80" viewBox="0 0 80 80" fill="none"><circle cx="40" cy="40" r="40" fill="#E7F6F6"></circle><g clip-path="url(#clip0_32_16)"><path d="M59.7626 38.0832C59.593 38.2499 59.3726 38.3332 59.1522 38.3332C58.9317 38.3332 58.7283 38.2499 58.5587 38.0999L54.0652 33.8165V59.1665C54.0652 59.6332 53.6922 59.9999 53.2174 59.9999C52.7426 59.9999 52.3696 59.6332 52.3696 59.1665V33.8165L47.8761 38.0999C47.537 38.4165 47.0113 38.4165 46.6722 38.0832C46.35 37.7499 46.35 37.2165 46.6891 36.8999L51.42 32.3832C52.4035 31.4165 54.0143 31.4165 54.9978 32.3832L59.7287 36.8832C60.0678 37.1999 60.0678 37.7332 59.7456 38.0665L59.7626 38.0832Z" fill="#1DBFCC"></path><path d="M35.1589 26.4338L39.6524 22.1505V32.5005C39.6524 32.9671 40.0255 33.3338 40.5002 33.3338C40.975 33.3338 41.3481 32.9671 41.3481 32.5005V22.1505L45.8415 26.4338C46.0111 26.5838 46.2146 26.6671 46.435 26.6671C46.6555 26.6671 46.8759 26.5838 47.0455 26.4171C47.3676 26.0838 47.3676 25.5671 47.0285 25.2338L42.2976 20.7338C41.2972 19.7671 39.6863 19.7671 38.7198 20.7338L33.9889 25.2505C33.6498 25.5671 33.6498 26.1005 33.972 26.4338C34.2941 26.7671 34.8368 26.7671 35.1759 26.4505L35.1589 26.4338Z" fill="#1DBFCC"></path><path d="M33.7176 34.9996C33.938 34.9996 34.1585 34.9162 34.328 34.7496C34.6502 34.4162 34.6502 33.8829 34.3111 33.5662L29.5802 29.0662C28.5798 28.0829 26.9689 28.0996 25.9854 29.0662L21.2546 33.5662C20.9154 33.8829 20.9154 34.4162 21.2376 34.7496C21.5598 35.0829 22.1024 35.0829 22.4415 34.7662L26.935 30.4829V59.1662C26.935 59.6329 27.308 59.9996 27.7828 59.9996C28.2576 59.9996 28.6306 59.6329 28.6306 59.1662V30.4829L33.1241 34.7662C33.2937 34.9162 33.4972 34.9996 33.7176 34.9996Z" fill="#1DBFCC"></path><path d="M37.9393 41.667H43.0432C44.4337 41.667 45.5698 42.7837 45.5698 44.1503C45.5698 44.617 45.9428 44.9837 46.4176 44.9837C46.8924 44.9837 47.2654 44.617 47.2654 44.1503C47.2654 41.8503 45.3663 40.0003 43.0432 40.0003H41.3306V37.5003C41.3306 37.0337 40.9576 36.667 40.4828 36.667C40.008 36.667 39.635 37.0337 39.635 37.5003V40.0003H37.9224C35.5824 40.0003 33.7002 41.867 33.7002 44.1503C33.7002 46.0003 34.955 47.6503 36.7693 48.1503L43.7215 50.1003C44.8067 50.4003 45.5698 51.3837 45.5698 52.5003C45.5698 53.867 44.4337 55.0003 43.0432 55.0003H37.9393C36.5489 55.0003 35.4128 53.8837 35.4128 52.5003C35.4128 52.0337 35.0398 51.667 34.565 51.667C34.0902 51.667 33.7172 52.0337 33.7172 52.5003C33.7172 54.8003 35.6163 56.667 37.9393 56.667H39.6519V59.167C39.6519 59.6337 40.025 60.0003 40.4998 60.0003C40.9745 60.0003 41.3476 59.6337 41.3476 59.167V56.667H43.0602C45.4002 56.667 47.2824 54.8003 47.2824 52.517C47.2824 50.667 46.0276 49.0337 44.2132 48.517L37.2611 46.567C36.1758 46.267 35.4128 45.2837 35.4128 44.167C35.4128 42.8003 36.5489 41.6837 37.9393 41.667Z" fill="#002345"></path></g><defs><clipPath id="clip0_32_16"><rect width="39" height="40" fill="white" transform="translate(21 20)"></rect></clipPath></defs></svg>